<?xml version="1.0" encoding="UTF-8" standalone="no"?>
<!-- Generator: Adobe Illustrator 23.0.1, SVG Export Plug-In . SVG Version: 6.00 Build 0)  -->

<svg
   xmlns:dc="http://purl.org/dc/elements/1.1/"
   xmlns:cc="http://creativecommons.org/ns#"
   xmlns:rdf="http://www.w3.org/1999/02/22-rdf-syntax-ns#"
   xmlns:svg="http://www.w3.org/2000/svg"
   xmlns="http://www.w3.org/2000/svg"
   xmlns:sodipodi="http://sodipodi.sourceforge.net/DTD/sodipodi-0.dtd"
   xmlns:inkscape="http://www.inkscape.org/namespaces/inkscape"
   version="1.1"
   id="Layer_1"
   x="0px"
   y="0px"
   viewBox="0 0 466.97 83.419998"
   xml:space="preserve"
   sodipodi:docname="logo.svg"
   width="466.97"
   height="83.419998"
   inkscape:version="0.92.4 (5da689c313, 2019-01-14)"><metadata
   id="metadata4265"><rdf:RDF><cc:Work
       rdf:about=""><dc:format>image/svg+xml</dc:format><dc:type
         rdf:resource="http://purl.org/dc/dcmitype/StillImage" /></cc:Work></rdf:RDF></metadata><defs
   id="defs4263" /><sodipodi:namedview
   pagecolor="#ffffff"
   bordercolor="#666666"
   borderopacity="1"
   objecttolerance="10"
   gridtolerance="10"
   guidetolerance="10"
   inkscape:pageopacity="0"
   inkscape:pageshadow="2"
   inkscape:window-width="1920"
   inkscape:window-height="1001"
   id="namedview4261"
   showgrid="false"
   inkscape:zoom="1.2469136"
   inkscape:cx="238.61"
   inkscape:cy="106.17952"
   inkscape:window-x="-9"
   inkscape:window-y="-9"
   inkscape:window-maximized="1"
   inkscape:current-layer="Layer_1" />
<style
   type="text/css"
   id="style3990">
	.st0{fill:url(#SVGID_1_);}
	.st1{fill:url(#SVGID_2_);}
	.st2{fill:url(#SVGID_3_);}
	.st3{fill:url(#SVGID_4_);}
	.st4{fill:url(#SVGID_5_);}
	.st5{fill:url(#SVGID_6_);}
	.st6{fill:url(#SVGID_7_);}
	.st7{fill:url(#SVGID_8_);}
	.st8{fill:url(#SVGID_9_);}
	.st9{fill:url(#SVGID_10_);}
	.st10{fill:url(#SVGID_11_);}
	.st11{fill:url(#SVGID_12_);}
	.st12{fill:url(#SVGID_13_);}
	.st13{fill:url(#SVGID_14_);}
	.st14{fill:url(#SVGID_15_);}
	.st15{fill:url(#SVGID_16_);}
	.st16{fill:url(#SVGID_17_);}
	.st17{fill:url(#SVGID_18_);}
	.st18{fill:url(#SVGID_19_);}
	.st19{fill:url(#SVGID_20_);}
	.st20{fill:url(#SVGID_21_);}
	.st21{fill:url(#SVGID_22_);}
	.st22{fill:url(#SVGID_23_);}
	.st23{fill:url(#SVGID_24_);}
	.st24{fill:url(#SVGID_25_);}
	.st25{fill:url(#SVGID_26_);}
	.st26{fill:url(#SVGID_27_);}
	.st27{fill:url(#SVGID_28_);}
	.st28{fill:url(#SVGID_29_);}
	.st29{fill:url(#SVGID_30_);}
	.st30{fill:url(#SVGID_31_);}
	.st31{fill:url(#SVGID_32_);}
	.st32{fill:url(#SVGID_33_);stroke:#F5822F;stroke-width:0.1717;stroke-miterlimit:10;}
	.st33{fill:url(#SVGID_34_);}
	.st34{fill:url(#SVGID_35_);}
	.st35{fill:url(#SVGID_36_);}
</style>
<g
   id="g4190"
   transform="translate(-337.39,-285.8)">
	<g
   id="g4188">
		<linearGradient
   id="SVGID_1_"
   gradientUnits="userSpaceOnUse"
   x1="480.9697"
   y1="296.04391"
   x2="482.33231"
   y2="334.19571">
			<stop
   offset="0"
   style="stop-color:#C9F9F9"
   id="stop3992" />
			<stop
   offset="1"
   style="stop-color:#44C8D5"
   id="stop3994" />
		</linearGradient>
		<path
   class="st0"
   d="m 491.58,313.05 c 0.39,0.85 0.72,1.72 0.97,2.61 0.26,0.89 0.45,1.79 0.57,2.7 -1.57,0.57 -2.99,0.95 -4.24,1.13 -1.25,0.18 -2.61,0.27 -4.06,0.27 -2.57,0 -4.82,-0.42 -6.76,-1.25 -1.93,-0.83 -3.56,-2 -4.87,-3.49 -1.31,-1.5 -2.31,-3.27 -2.97,-5.33 -0.66,-2.06 -1,-4.29 -1,-6.71 0,-2.42 0.35,-4.66 1.04,-6.73 0.69,-2.07 1.7,-3.86 3.01,-5.37 1.32,-1.51 2.93,-2.69 4.85,-3.54 1.92,-0.85 4.1,-1.27 6.55,-1.27 1.45,0 2.79,0.09 4.01,0.27 1.22,0.18 2.55,0.56 3.97,1.13 -0.06,0.91 -0.24,1.79 -0.54,2.65 -0.3,0.86 -0.63,1.73 -1,2.61 -1.06,-0.36 -2,-0.62 -2.81,-0.77 -0.82,-0.15 -1.78,-0.23 -2.9,-0.23 -2.9,0 -5.13,0.95 -6.69,2.83 -1.56,1.89 -2.33,4.69 -2.33,8.41 0,7.38 3.13,11.06 9.38,11.06 1.12,0 2.1,-0.08 2.95,-0.23 0.86,-0.13 1.81,-0.39 2.87,-0.75 z"
   id="path3997"
   inkscape:connector-curvature="0"
   style="fill:url(#SVGID_1_)" />
		<linearGradient
   id="SVGID_2_"
   gradientUnits="userSpaceOnUse"
   x1="499.6185"
   y1="295.3779"
   x2="500.98111"
   y2="333.52969">
			<stop
   offset="0"
   style="stop-color:#C9F9F9"
   id="stop3999" />
			<stop
   offset="1"
   style="stop-color:#44C8D5"
   id="stop4001" />
		</linearGradient>
		<path
   class="st1"
   d="m 494.59,286.07 c 1.09,-0.18 2.16,-0.27 3.22,-0.27 1.03,0 2.09,0.09 3.17,0.27 v 23.8 c 0,0.94 0.05,1.69 0.16,2.27 0.11,0.57 0.27,1.02 0.5,1.34 0.23,0.32 0.52,0.54 0.88,0.66 0.36,0.12 0.82,0.18 1.36,0.18 0.24,0 0.51,-0.01 0.79,-0.05 0.29,-0.03 0.57,-0.08 0.84,-0.14 0.33,1.24 0.5,2.45 0.5,3.63 0,0.24 0,0.46 0,0.66 0,0.2 -0.03,0.42 -0.09,0.66 -0.48,0.15 -1.07,0.26 -1.75,0.32 -0.68,0.06 -1.31,0.09 -1.88,0.09 -2.33,0 -4.19,-0.64 -5.6,-1.93 -1.41,-1.28 -2.11,-3.38 -2.11,-6.28 v -25.21 z"
   id="path4004"
   inkscape:connector-curvature="0"
   style="fill:url(#SVGID_2_)" />
		<linearGradient
   id="SVGID_3_"
   gradientUnits="userSpaceOnUse"
   x1="516.28607"
   y1="294.78259"
   x2="517.64868"
   y2="332.93439">
			<stop
   offset="0"
   style="stop-color:#C9F9F9"
   id="stop4006" />
			<stop
   offset="1"
   style="stop-color:#44C8D5"
   id="stop4008" />
		</linearGradient>
		<path
   class="st2"
   d="m 516.72,319.76 c -1.9,0 -3.56,-0.31 -4.96,-0.93 -1.41,-0.62 -2.57,-1.48 -3.49,-2.58 -0.92,-1.1 -1.62,-2.4 -2.09,-3.88 -0.47,-1.48 -0.7,-3.08 -0.7,-4.81 0,-1.72 0.23,-3.34 0.7,-4.85 0.47,-1.51 1.16,-2.82 2.09,-3.92 0.92,-1.1 2.09,-1.97 3.49,-2.61 1.41,-0.63 3.06,-0.95 4.96,-0.95 1.9,0 3.57,0.32 4.99,0.95 1.42,0.63 2.6,1.5 3.54,2.61 0.94,1.1 1.63,2.41 2.09,3.92 0.45,1.51 0.68,3.13 0.68,4.85 0,1.72 -0.23,3.33 -0.68,4.81 -0.45,1.48 -1.15,2.77 -2.09,3.88 -0.94,1.1 -2.12,1.97 -3.54,2.58 -1.42,0.61 -3.09,0.93 -4.99,0.93 z m 0,-4.9 c 1.69,0 2.91,-0.63 3.65,-1.88 0.74,-1.25 1.11,-3.06 1.11,-5.42 0,-2.36 -0.37,-4.16 -1.11,-5.42 -0.74,-1.25 -1.96,-1.88 -3.65,-1.88 -1.66,0 -2.86,0.63 -3.6,1.88 -0.74,1.26 -1.11,3.06 -1.11,5.42 0,2.36 0.37,4.16 1.11,5.42 0.74,1.26 1.94,1.88 3.6,1.88 z"
   id="path4011"
   inkscape:connector-curvature="0"
   style="fill:url(#SVGID_3_)" />
		<linearGradient
   id="SVGID_4_"
   gradientUnits="userSpaceOnUse"
   x1="539.80988"
   y1="293.94241"
   x2="541.17249"
   y2="332.0943">
			<stop
   offset="0"
   style="stop-color:#C9F9F9"
   id="stop4013" />
			<stop
   offset="1"
   style="stop-color:#44C8D5"
   id="stop4015" />
		</linearGradient>
		<path
   class="st3"
   d="m 529.86,295.78 c 1.09,-0.18 2.16,-0.27 3.22,-0.27 1.06,0 2.13,0.09 3.22,0.27 v 12.42 c 0,1.24 0.1,2.26 0.29,3.06 0.2,0.8 0.5,1.44 0.91,1.9 0.41,0.47 0.91,0.8 1.52,1 0.6,0.2 1.31,0.29 2.13,0.29 1.12,0 2.06,-0.11 2.81,-0.32 v -18.36 c 1.09,-0.18 2.15,-0.27 3.17,-0.27 1.06,0 2.13,0.09 3.22,0.27 v 22.53 c -0.97,0.33 -2.24,0.66 -3.83,0.97 -1.59,0.32 -3.24,0.48 -4.96,0.48 -1.54,0 -3.02,-0.12 -4.44,-0.36 -1.42,-0.24 -2.67,-0.75 -3.74,-1.54 -1.07,-0.79 -1.93,-1.93 -2.56,-3.45 -0.63,-1.51 -0.95,-3.52 -0.95,-6.03 v -12.59 z"
   id="path4018"
   inkscape:connector-curvature="0"
   style="fill:url(#SVGID_4_)" />
		<linearGradient
   id="SVGID_5_"
   gradientUnits="userSpaceOnUse"
   x1="563.01978"
   y1="293.11349"
   x2="564.38239"
   y2="331.26541">
			<stop
   offset="0"
   style="stop-color:#C9F9F9"
   id="stop4020" />
			<stop
   offset="1"
   style="stop-color:#44C8D5"
   id="stop4022" />
		</linearGradient>
		<path
   class="st4"
   d="m 567.65,286.07 c 0.54,-0.09 1.08,-0.15 1.61,-0.18 0.53,-0.03 1.05,-0.05 1.56,-0.05 0.51,0 1.04,0.02 1.59,0.05 0.54,0.03 1.09,0.09 1.63,0.18 v 32.37 c -1.42,0.42 -2.86,0.75 -4.33,0.97 -1.47,0.23 -3.24,0.34 -5.33,0.34 -1.6,0 -3.14,-0.22 -4.6,-0.66 -1.47,-0.44 -2.76,-1.13 -3.88,-2.09 -1.12,-0.95 -2,-2.18 -2.65,-3.69 -0.65,-1.51 -0.97,-3.36 -0.97,-5.53 0,-1.72 0.28,-3.35 0.84,-4.87 0.56,-1.53 1.36,-2.85 2.4,-3.97 1.04,-1.12 2.3,-2 3.79,-2.65 1.48,-0.65 3.13,-0.97 4.94,-0.97 0.54,0 1.11,0.02 1.7,0.07 0.59,0.05 1.16,0.14 1.7,0.29 z m 0,14.56 c -0.6,-0.15 -1.1,-0.25 -1.47,-0.29 -0.38,-0.05 -0.85,-0.07 -1.43,-0.07 -1,0 -1.87,0.2 -2.61,0.61 -0.74,0.41 -1.35,0.95 -1.84,1.63 -0.48,0.68 -0.84,1.48 -1.07,2.4 -0.23,0.92 -0.34,1.88 -0.34,2.88 0,1.24 0.15,2.29 0.45,3.15 0.3,0.86 0.72,1.55 1.25,2.06 0.53,0.51 1.16,0.88 1.88,1.11 0.73,0.23 1.51,0.34 2.36,0.34 0.51,0 0.98,-0.02 1.41,-0.07 0.42,-0.05 0.89,-0.14 1.41,-0.29 z"
   id="path4025"
   inkscape:connector-curvature="0"
   style="fill:url(#SVGID_5_)" />
		<linearGradient
   id="SVGID_6_"
   gradientUnits="userSpaceOnUse"
   x1="600.09808"
   y1="291.78931"
   x2="601.46057"
   y2="329.9411">
			<stop
   offset="0"
   style="stop-color:#C9F9F9"
   id="stop4027" />
			<stop
   offset="1"
   style="stop-color:#44C8D5"
   id="stop4029" />
		</linearGradient>
		<path
   class="st5"
   d="m 589.2,286.62 c 1.33,-0.15 2.58,-0.28 3.74,-0.39 1.16,-0.11 2.46,-0.16 3.88,-0.16 1.66,0 3.3,0.15 4.92,0.45 1.62,0.3 3.08,0.84 4.38,1.61 1.3,0.77 2.35,1.81 3.15,3.13 0.8,1.31 1.2,2.99 1.2,5.01 0,1.21 -0.15,2.27 -0.45,3.2 -0.3,0.92 -0.69,1.73 -1.16,2.43 -0.47,0.7 -0.97,1.29 -1.52,1.79 -0.55,0.5 -1.06,0.9 -1.54,1.2 l -0.77,0.5 7.93,13.78 c -0.6,0.06 -1.24,0.12 -1.9,0.18 -0.67,0.06 -1.35,0.09 -2.04,0.09 -1.15,0 -2.28,-0.09 -3.4,-0.27 l -8.52,-15.14 1.09,-0.54 c 0.42,-0.21 0.94,-0.48 1.54,-0.82 0.6,-0.33 1.19,-0.75 1.75,-1.25 0.56,-0.5 1.04,-1.1 1.43,-1.81 0.39,-0.71 0.59,-1.55 0.59,-2.52 0,-1.9 -0.54,-3.3 -1.63,-4.19 -1.09,-0.89 -2.49,-1.34 -4.22,-1.34 -0.66,0 -1.27,0.05 -1.81,0.14 v 27.52 c -0.54,0.06 -1.09,0.11 -1.63,0.16 -0.54,0.05 -1.07,0.07 -1.59,0.07 -0.51,0 -1.06,-0.02 -1.63,-0.05 -0.57,-0.03 -1.16,-0.09 -1.77,-0.18 v -32.6 z"
   id="path4032"
   inkscape:connector-curvature="0"
   style="fill:url(#SVGID_6_)" />
		<linearGradient
   id="SVGID_7_"
   gradientUnits="userSpaceOnUse"
   x1="622.29218"
   y1="290.9967"
   x2="623.65479"
   y2="329.1485">
			<stop
   offset="0"
   style="stop-color:#C9F9F9"
   id="stop4034" />
			<stop
   offset="1"
   style="stop-color:#44C8D5"
   id="stop4036" />
		</linearGradient>
		<path
   class="st6"
   d="m 618.4,309.47 c 0.12,1.81 0.76,3.13 1.9,3.94 1.15,0.82 2.66,1.22 4.53,1.22 1.03,0 2.08,-0.1 3.15,-0.29 1.07,-0.2 2.09,-0.48 3.06,-0.84 0.33,0.6 0.62,1.33 0.86,2.18 0.24,0.85 0.38,1.75 0.41,2.72 -2.36,0.91 -5.02,1.36 -7.98,1.36 -2.18,0 -4.04,-0.3 -5.6,-0.91 -1.56,-0.6 -2.83,-1.44 -3.81,-2.52 -0.98,-1.07 -1.71,-2.35 -2.18,-3.83 -0.47,-1.48 -0.7,-3.1 -0.7,-4.85 0,-1.72 0.24,-3.34 0.72,-4.85 0.48,-1.51 1.2,-2.83 2.15,-3.94 0.95,-1.12 2.13,-2 3.54,-2.65 1.41,-0.65 3.04,-0.97 4.92,-0.97 1.63,0 3.08,0.29 4.35,0.86 1.27,0.57 2.35,1.36 3.24,2.36 0.89,1 1.56,2.18 2.02,3.56 0.45,1.38 0.68,2.85 0.68,4.42 0,0.57 -0.02,1.14 -0.07,1.7 -0.05,0.56 -0.1,1.01 -0.16,1.34 H 618.4 Z m 9.2,-4.49 c -0.06,-1.45 -0.46,-2.62 -1.2,-3.51 -0.74,-0.89 -1.78,-1.34 -3.11,-1.34 -1.51,0 -2.66,0.42 -3.45,1.27 -0.79,0.85 -1.25,2.04 -1.4,3.58 z"
   id="path4039"
   inkscape:connector-curvature="0"
   style="fill:url(#SVGID_7_)" />
		<linearGradient
   id="SVGID_8_"
   gradientUnits="userSpaceOnUse"
   x1="642.32019"
   y1="290.2814"
   x2="643.6828"
   y2="328.4332">
			<stop
   offset="0"
   style="stop-color:#C9F9F9"
   id="stop4041" />
			<stop
   offset="1"
   style="stop-color:#44C8D5"
   id="stop4043" />
		</linearGradient>
		<path
   class="st7"
   d="m 640.37,309.02 c -1.69,-0.48 -3.01,-1.2 -3.97,-2.15 -0.95,-0.95 -1.43,-2.38 -1.43,-4.28 0,-2.3 0.82,-4.1 2.47,-5.4 1.65,-1.3 3.89,-1.95 6.73,-1.95 1.18,0 2.34,0.11 3.49,0.32 1.15,0.21 2.31,0.53 3.49,0.95 -0.06,0.79 -0.21,1.6 -0.45,2.45 -0.24,0.85 -0.53,1.59 -0.86,2.22 -0.72,-0.3 -1.53,-0.57 -2.4,-0.79 -0.88,-0.23 -1.8,-0.34 -2.77,-0.34 -1.03,0 -1.83,0.16 -2.4,0.48 -0.58,0.32 -0.86,0.82 -0.86,1.52 0,0.67 0.2,1.13 0.61,1.41 0.41,0.27 0.99,0.53 1.75,0.77 l 2.58,0.77 c 0.85,0.24 1.61,0.54 2.29,0.88 0.68,0.35 1.26,0.78 1.75,1.29 0.48,0.51 0.86,1.15 1.13,1.9 0.27,0.76 0.41,1.68 0.41,2.77 0,1.12 -0.23,2.16 -0.7,3.13 -0.47,0.97 -1.15,1.81 -2.04,2.52 -0.89,0.71 -1.97,1.27 -3.24,1.68 -1.27,0.41 -2.71,0.61 -4.31,0.61 -0.72,0 -1.39,-0.02 -1.99,-0.07 -0.6,-0.04 -1.19,-0.12 -1.75,-0.23 -0.56,-0.11 -1.11,-0.23 -1.66,-0.39 -0.54,-0.15 -1.13,-0.35 -1.77,-0.59 0.06,-0.82 0.2,-1.64 0.43,-2.47 0.23,-0.83 0.52,-1.64 0.88,-2.43 1,0.39 1.94,0.69 2.83,0.88 0.89,0.2 1.82,0.29 2.79,0.29 0.42,0 0.88,-0.04 1.38,-0.11 0.5,-0.08 0.96,-0.21 1.38,-0.41 0.42,-0.2 0.78,-0.45 1.07,-0.77 0.29,-0.32 0.43,-0.73 0.43,-1.25 0,-0.73 -0.22,-1.25 -0.66,-1.56 -0.44,-0.32 -1.05,-0.6 -1.84,-0.84 z"
   id="path4046"
   inkscape:connector-curvature="0"
   style="fill:url(#SVGID_8_)" />
		<linearGradient
   id="SVGID_9_"
   gradientUnits="userSpaceOnUse"
   x1="663.35211"
   y1="289.53021"
   x2="664.71472"
   y2="327.6821">
			<stop
   offset="0"
   style="stop-color:#C9F9F9"
   id="stop4048" />
			<stop
   offset="1"
   style="stop-color:#44C8D5"
   id="stop4050" />
		</linearGradient>
		<path
   class="st8"
   d="m 663.97,319.76 c -1.91,0 -3.56,-0.31 -4.97,-0.93 -1.4,-0.62 -2.57,-1.48 -3.49,-2.58 -0.92,-1.1 -1.62,-2.4 -2.09,-3.88 -0.47,-1.48 -0.7,-3.08 -0.7,-4.81 0,-1.72 0.23,-3.34 0.7,-4.85 0.47,-1.51 1.16,-2.82 2.09,-3.92 0.92,-1.1 2.09,-1.97 3.49,-2.61 1.41,-0.63 3.06,-0.95 4.97,-0.95 1.9,0 3.57,0.32 4.99,0.95 1.42,0.63 2.6,1.5 3.54,2.61 0.94,1.1 1.63,2.41 2.09,3.92 0.45,1.51 0.68,3.13 0.68,4.85 0,1.72 -0.23,3.33 -0.68,4.81 -0.45,1.48 -1.15,2.77 -2.09,3.88 -0.94,1.1 -2.12,1.97 -3.54,2.58 -1.42,0.62 -3.08,0.93 -4.99,0.93 z m 0,-4.9 c 1.69,0 2.91,-0.63 3.65,-1.88 0.74,-1.25 1.11,-3.06 1.11,-5.42 0,-2.36 -0.37,-4.16 -1.11,-5.42 -0.74,-1.25 -1.96,-1.88 -3.65,-1.88 -1.66,0 -2.86,0.63 -3.6,1.88 -0.74,1.26 -1.11,3.06 -1.11,5.42 0,2.36 0.37,4.16 1.11,5.42 0.74,1.26 1.94,1.88 3.6,1.88 z"
   id="path4053"
   inkscape:connector-curvature="0"
   style="fill:url(#SVGID_9_)" />
		<linearGradient
   id="SVGID_10_"
   gradientUnits="userSpaceOnUse"
   x1="686.87518"
   y1="288.69009"
   x2="688.23767"
   y2="326.84189">
			<stop
   offset="0"
   style="stop-color:#C9F9F9"
   id="stop4055" />
			<stop
   offset="1"
   style="stop-color:#44C8D5"
   id="stop4057" />
		</linearGradient>
		<path
   class="st9"
   d="m 677.12,295.78 c 1.09,-0.18 2.16,-0.27 3.22,-0.27 1.06,0 2.13,0.09 3.22,0.27 v 12.42 c 0,1.24 0.1,2.26 0.29,3.06 0.2,0.8 0.5,1.44 0.91,1.9 0.41,0.46 0.91,0.8 1.52,1 0.6,0.2 1.31,0.29 2.13,0.29 1.12,0 2.06,-0.11 2.81,-0.32 v -18.36 c 1.09,-0.18 2.15,-0.27 3.17,-0.27 1.06,0 2.13,0.09 3.22,0.27 v 22.53 c -0.97,0.33 -2.24,0.66 -3.83,0.97 -1.59,0.32 -3.24,0.48 -4.97,0.48 -1.54,0 -3.02,-0.12 -4.44,-0.36 -1.42,-0.24 -2.67,-0.75 -3.74,-1.54 -1.07,-0.79 -1.93,-1.93 -2.56,-3.45 -0.63,-1.51 -0.95,-3.52 -0.95,-6.03 z"
   id="path4060"
   inkscape:connector-curvature="0"
   style="fill:url(#SVGID_10_)" />
		<linearGradient
   id="SVGID_11_"
   gradientUnits="userSpaceOnUse"
   x1="707.11432"
   y1="287.96729"
   x2="708.47693"
   y2="326.11911">
			<stop
   offset="0"
   style="stop-color:#C9F9F9"
   id="stop4062" />
			<stop
   offset="1"
   style="stop-color:#44C8D5"
   id="stop4064" />
		</linearGradient>
		<path
   class="st10"
   d="m 700.77,295.78 c 0.45,-0.09 0.88,-0.16 1.29,-0.2 0.41,-0.05 0.85,-0.07 1.34,-0.07 0.45,0 0.9,0.03 1.34,0.09 0.44,0.06 0.87,0.14 1.29,0.23 0.09,0.15 0.17,0.37 0.25,0.66 0.08,0.29 0.14,0.59 0.2,0.91 0.06,0.32 0.11,0.63 0.16,0.95 0.05,0.32 0.08,0.58 0.11,0.79 0.66,-0.94 1.48,-1.77 2.45,-2.52 0.97,-0.74 2.18,-1.11 3.63,-1.11 0.3,0 0.65,0.02 1.04,0.05 0.39,0.03 0.68,0.08 0.86,0.14 0.06,0.3 0.1,0.65 0.14,1.04 0.03,0.39 0.05,0.8 0.05,1.22 0,0.51 -0.02,1.07 -0.07,1.68 -0.04,0.6 -0.13,1.18 -0.25,1.72 -0.33,-0.06 -0.7,-0.09 -1.11,-0.09 -0.41,0 -0.66,0 -0.75,0 -0.51,0 -1.09,0.05 -1.72,0.16 -0.64,0.11 -1.24,0.39 -1.81,0.84 -0.57,0.45 -1.05,1.13 -1.43,2.04 -0.38,0.91 -0.57,2.18 -0.57,3.81 v 11.15 c -0.54,0.09 -1.09,0.15 -1.63,0.18 -0.54,0.03 -1.07,0.05 -1.59,0.05 -0.51,0 -1.04,-0.02 -1.56,-0.05 -0.53,-0.03 -1.08,-0.09 -1.66,-0.18 z"
   id="path4067"
   inkscape:connector-curvature="0"
   style="fill:url(#SVGID_11_)" />
		<linearGradient
   id="SVGID_12_"
   gradientUnits="userSpaceOnUse"
   x1="723.34119"
   y1="287.38779"
   x2="724.7038"
   y2="325.53961">
			<stop
   offset="0"
   style="stop-color:#C9F9F9"
   id="stop4069" />
			<stop
   offset="1"
   style="stop-color:#44C8D5"
   id="stop4071" />
		</linearGradient>
		<path
   class="st11"
   d="m 731.89,313.68 c 0.36,0.61 0.66,1.31 0.91,2.11 0.24,0.8 0.36,1.75 0.36,2.83 -1.21,0.48 -2.34,0.79 -3.4,0.93 -1.06,0.14 -2.16,0.2 -3.31,0.2 -1.97,0 -3.67,-0.31 -5.12,-0.93 -1.45,-0.62 -2.65,-1.47 -3.6,-2.56 -0.95,-1.09 -1.67,-2.38 -2.15,-3.88 -0.48,-1.5 -0.73,-3.12 -0.73,-4.87 0,-1.72 0.23,-3.32 0.7,-4.81 0.47,-1.48 1.18,-2.78 2.13,-3.9 0.95,-1.12 2.14,-2 3.56,-2.63 1.42,-0.63 3.07,-0.95 4.94,-0.95 0.66,0 1.28,0.02 1.84,0.05 0.56,0.03 1.09,0.09 1.61,0.18 0.51,0.09 1.03,0.21 1.54,0.36 0.51,0.15 1.09,0.35 1.72,0.59 0,0.7 -0.09,1.47 -0.27,2.34 -0.18,0.86 -0.47,1.69 -0.86,2.47 -0.91,-0.3 -1.7,-0.51 -2.38,-0.61 -0.68,-0.11 -1.46,-0.16 -2.34,-0.16 -1.87,0 -3.29,0.61 -4.24,1.84 -0.95,1.22 -1.43,2.97 -1.43,5.24 0,2.45 0.51,4.23 1.54,5.35 1.03,1.12 2.42,1.68 4.17,1.68 0.45,0 0.87,-0.01 1.25,-0.02 0.38,-0.01 0.75,-0.05 1.11,-0.11 0.36,-0.06 0.73,-0.15 1.11,-0.27 0.38,-0.13 0.83,-0.28 1.34,-0.47 z"
   id="path4074"
   inkscape:connector-curvature="0"
   style="fill:url(#SVGID_12_)" />
		<linearGradient
   id="SVGID_13_"
   gradientUnits="userSpaceOnUse"
   x1="743.22357"
   y1="286.6777"
   x2="744.58618"
   y2="324.8295">
			<stop
   offset="0"
   style="stop-color:#C9F9F9"
   id="stop4076" />
			<stop
   offset="1"
   style="stop-color:#44C8D5"
   id="stop4078" />
		</linearGradient>
		<path
   class="st12"
   d="m 739.49,309.47 c 0.12,1.81 0.76,3.13 1.9,3.94 1.15,0.82 2.66,1.22 4.53,1.22 1.03,0 2.08,-0.1 3.15,-0.29 1.07,-0.2 2.09,-0.48 3.06,-0.84 0.33,0.6 0.62,1.33 0.86,2.18 0.24,0.85 0.38,1.75 0.41,2.72 -2.36,0.91 -5.02,1.36 -7.98,1.36 -2.18,0 -4.04,-0.3 -5.6,-0.91 -1.56,-0.6 -2.83,-1.44 -3.81,-2.52 -0.98,-1.07 -1.71,-2.35 -2.18,-3.83 -0.47,-1.48 -0.7,-3.1 -0.7,-4.85 0,-1.72 0.24,-3.34 0.72,-4.85 0.48,-1.51 1.2,-2.83 2.15,-3.94 0.95,-1.12 2.13,-2 3.54,-2.65 1.41,-0.65 3.04,-0.97 4.92,-0.97 1.63,0 3.08,0.29 4.35,0.86 1.27,0.57 2.35,1.36 3.24,2.36 0.89,1 1.56,2.18 2.02,3.56 0.45,1.38 0.68,2.85 0.68,4.42 0,0.57 -0.02,1.14 -0.07,1.7 -0.05,0.56 -0.1,1.01 -0.16,1.34 h -15.03 z m 9.2,-4.49 c -0.06,-1.45 -0.46,-2.62 -1.2,-3.51 -0.74,-0.89 -1.78,-1.34 -3.11,-1.34 -1.51,0 -2.66,0.42 -3.45,1.27 -0.79,0.85 -1.25,2.04 -1.4,3.58 z"
   id="path4081"
   inkscape:connector-curvature="0"
   style="fill:url(#SVGID_13_)" />
		<linearGradient
   id="SVGID_14_"
   gradientUnits="userSpaceOnUse"
   x1="480.10669"
   y1="330.9176"
   x2="482.37759"
   y2="380.4241">
			<stop
   offset="0"
   style="stop-color:#C9F9F9"
   id="stop4083" />
			<stop
   offset="1"
   style="stop-color:#44C8D5"
   id="stop4085" />
		</linearGradient>
		<path
   class="st13"
   d="m 470.05,325.19 c 1.39,-0.12 2.8,-0.22 4.22,-0.29 1.42,-0.08 2.86,-0.11 4.31,-0.11 1.51,0 3.04,0.15 4.6,0.45 1.56,0.3 2.96,0.87 4.22,1.7 1.25,0.83 2.27,1.99 3.06,3.47 0.79,1.48 1.18,3.4 1.18,5.76 0,2.36 -0.39,4.27 -1.18,5.74 -0.79,1.47 -1.8,2.62 -3.04,3.47 -1.24,0.85 -2.62,1.42 -4.15,1.72 -1.53,0.3 -3.03,0.45 -4.51,0.45 -0.39,0 -0.76,-0.01 -1.11,-0.02 -0.35,-0.02 -0.67,-0.04 -0.97,-0.07 v 10.47 c -0.57,0.09 -1.13,0.15 -1.68,0.18 -0.54,0.03 -1.07,0.05 -1.59,0.05 -0.48,0 -1.01,-0.02 -1.59,-0.05 -0.57,-0.03 -1.16,-0.09 -1.77,-0.18 z m 6.61,16.78 c 0.36,0.06 0.7,0.09 1.02,0.09 0.32,0 0.7,0 1.16,0 0.76,0 1.5,-0.1 2.22,-0.29 0.73,-0.2 1.37,-0.52 1.93,-0.97 0.56,-0.45 1,-1.05 1.34,-1.79 0.33,-0.74 0.5,-1.66 0.5,-2.74 0,-1.12 -0.17,-2.06 -0.5,-2.83 -0.33,-0.77 -0.78,-1.39 -1.34,-1.86 -0.56,-0.47 -1.2,-0.8 -1.93,-1 -0.73,-0.2 -1.47,-0.29 -2.22,-0.29 -0.33,0 -0.64,0.01 -0.93,0.02 -0.29,0.02 -0.7,0.05 -1.25,0.11 z"
   id="path4088"
   inkscape:connector-curvature="0"
   style="fill:url(#SVGID_14_)" />
		<linearGradient
   id="SVGID_15_"
   gradientUnits="userSpaceOnUse"
   x1="499.66821"
   y1="330.02029"
   x2="501.93921"
   y2="379.52679">
			<stop
   offset="0"
   style="stop-color:#C9F9F9"
   id="stop4090" />
			<stop
   offset="1"
   style="stop-color:#44C8D5"
   id="stop4092" />
		</linearGradient>
		<path
   class="st14"
   d="m 493.38,334.49 c 0.45,-0.09 0.88,-0.16 1.29,-0.2 0.41,-0.05 0.85,-0.07 1.34,-0.07 0.45,0 0.9,0.03 1.34,0.09 0.44,0.06 0.87,0.14 1.29,0.23 0.09,0.15 0.17,0.37 0.25,0.66 0.07,0.29 0.14,0.59 0.2,0.91 0.06,0.32 0.11,0.63 0.16,0.95 0.05,0.32 0.08,0.58 0.11,0.79 0.66,-0.94 1.48,-1.78 2.45,-2.52 0.97,-0.74 2.18,-1.11 3.63,-1.11 0.3,0 0.65,0.02 1.04,0.04 0.39,0.03 0.68,0.08 0.86,0.14 0.06,0.3 0.11,0.65 0.14,1.04 0.03,0.39 0.05,0.8 0.05,1.22 0,0.51 -0.02,1.07 -0.07,1.68 -0.05,0.6 -0.13,1.18 -0.25,1.72 -0.33,-0.06 -0.7,-0.09 -1.11,-0.09 -0.41,0 -0.66,0 -0.75,0 -0.51,0 -1.09,0.05 -1.72,0.16 -0.63,0.11 -1.24,0.39 -1.81,0.84 -0.57,0.45 -1.05,1.13 -1.43,2.04 -0.38,0.91 -0.57,2.18 -0.57,3.81 v 11.15 c -0.54,0.09 -1.09,0.15 -1.63,0.18 -0.54,0.03 -1.07,0.05 -1.59,0.05 -0.51,0 -1.04,-0.02 -1.56,-0.05 -0.53,-0.03 -1.08,-0.09 -1.65,-0.18 v -23.48 z"
   id="path4095"
   inkscape:connector-curvature="0"
   style="fill:url(#SVGID_15_)" />
		<linearGradient
   id="SVGID_16_"
   gradientUnits="userSpaceOnUse"
   x1="517.95831"
   y1="329.18121"
   x2="520.22919"
   y2="378.68781">
			<stop
   offset="0"
   style="stop-color:#C9F9F9"
   id="stop4097" />
			<stop
   offset="1"
   style="stop-color:#44C8D5"
   id="stop4099" />
		</linearGradient>
		<path
   class="st15"
   d="m 518.72,358.47 c -1.9,0 -3.56,-0.31 -4.96,-0.93 -1.41,-0.62 -2.57,-1.48 -3.49,-2.58 -0.92,-1.1 -1.62,-2.4 -2.09,-3.88 -0.47,-1.48 -0.7,-3.08 -0.7,-4.81 0,-1.72 0.23,-3.34 0.7,-4.85 0.47,-1.51 1.16,-2.82 2.09,-3.92 0.92,-1.1 2.09,-1.97 3.49,-2.61 1.41,-0.64 3.06,-0.95 4.96,-0.95 1.9,0 3.57,0.32 4.99,0.95 1.42,0.63 2.6,1.5 3.54,2.61 0.94,1.1 1.63,2.41 2.09,3.92 0.45,1.51 0.68,3.13 0.68,4.85 0,1.72 -0.23,3.32 -0.68,4.81 -0.45,1.48 -1.15,2.77 -2.09,3.88 -0.94,1.1 -2.12,1.97 -3.54,2.58 -1.42,0.62 -3.09,0.93 -4.99,0.93 z m 0,-4.89 c 1.69,0 2.91,-0.63 3.65,-1.88 0.74,-1.25 1.11,-3.06 1.11,-5.42 0,-2.36 -0.37,-4.16 -1.11,-5.42 -0.74,-1.25 -1.96,-1.88 -3.65,-1.88 -1.66,0 -2.86,0.63 -3.6,1.88 -0.74,1.25 -1.11,3.06 -1.11,5.42 0,2.36 0.37,4.16 1.11,5.42 0.74,1.25 1.94,1.88 3.6,1.88 z"
   id="path4102"
   inkscape:connector-curvature="0"
   style="fill:url(#SVGID_16_)" />
		<linearGradient
   id="SVGID_17_"
   gradientUnits="userSpaceOnUse"
   x1="541.77722"
   y1="328.08871"
   x2="544.0481"
   y2="377.59521">
			<stop
   offset="0"
   style="stop-color:#C9F9F9"
   id="stop4104" />
			<stop
   offset="1"
   style="stop-color:#44C8D5"
   id="stop4106" />
		</linearGradient>
		<path
   class="st16"
   d="m 532.15,334.44 c 0.42,-0.09 0.84,-0.15 1.25,-0.18 0.41,-0.03 0.87,-0.04 1.38,-0.04 0.85,0 1.71,0.09 2.58,0.27 0.09,0.15 0.17,0.37 0.25,0.66 0.08,0.29 0.15,0.6 0.23,0.93 0.08,0.33 0.14,0.66 0.18,0.97 0.05,0.32 0.08,0.58 0.11,0.79 0.27,-0.48 0.6,-0.96 1,-1.43 0.39,-0.47 0.87,-0.88 1.43,-1.25 0.56,-0.36 1.19,-0.66 1.88,-0.88 0.69,-0.23 1.47,-0.34 2.31,-0.34 1.3,0 2.52,0.24 3.65,0.73 1.13,0.48 2.12,1.22 2.97,2.2 0.85,0.98 1.5,2.21 1.97,3.69 0.47,1.48 0.7,3.23 0.7,5.26 0,1.97 -0.29,3.72 -0.86,5.28 -0.57,1.56 -1.41,2.88 -2.49,3.97 -1.09,1.09 -2.42,1.93 -3.99,2.52 -1.57,0.59 -3.35,0.88 -5.35,0.88 -0.51,0 -1.02,-0.02 -1.52,-0.07 -0.5,-0.04 -0.91,-0.1 -1.25,-0.16 v 10.43 c -0.57,0.09 -1.13,0.15 -1.66,0.18 -0.53,0.03 -1.05,0.04 -1.56,0.04 -0.51,0 -1.04,-0.02 -1.56,-0.04 -0.53,-0.03 -1.08,-0.09 -1.66,-0.18 v -34.23 z m 6.44,18.5 c 0.82,0.24 1.75,0.36 2.81,0.36 1.87,0 3.31,-0.6 4.31,-1.81 1,-1.21 1.5,-3.04 1.5,-5.49 0,-0.94 -0.08,-1.81 -0.23,-2.61 -0.15,-0.8 -0.41,-1.49 -0.77,-2.06 -0.36,-0.57 -0.82,-1.03 -1.38,-1.36 -0.56,-0.33 -1.25,-0.5 -2.06,-0.5 -0.76,0 -1.4,0.14 -1.93,0.43 -0.53,0.29 -0.96,0.68 -1.29,1.18 -0.33,0.5 -0.57,1.08 -0.73,1.75 -0.15,0.67 -0.23,1.38 -0.23,2.13 z"
   id="path4109"
   inkscape:connector-curvature="0"
   style="fill:url(#SVGID_17_)" />
		<linearGradient
   id="SVGID_18_"
   gradientUnits="userSpaceOnUse"
   x1="565.04498"
   y1="327.0213"
   x2="567.31598"
   y2="376.52789">
			<stop
   offset="0"
   style="stop-color:#C9F9F9"
   id="stop4111" />
			<stop
   offset="1"
   style="stop-color:#44C8D5"
   id="stop4113" />
		</linearGradient>
		<path
   class="st17"
   d="m 561.44,348.18 c 0.12,1.81 0.76,3.13 1.9,3.94 1.15,0.82 2.66,1.22 4.53,1.22 1.03,0 2.08,-0.1 3.15,-0.29 1.07,-0.2 2.09,-0.48 3.06,-0.84 0.33,0.6 0.62,1.33 0.86,2.18 0.24,0.85 0.38,1.75 0.41,2.72 -2.36,0.91 -5.02,1.36 -7.98,1.36 -2.18,0 -4.04,-0.3 -5.6,-0.91 -1.56,-0.6 -2.83,-1.44 -3.81,-2.52 -0.98,-1.07 -1.71,-2.35 -2.18,-3.83 -0.47,-1.48 -0.7,-3.1 -0.7,-4.85 0,-1.72 0.24,-3.34 0.73,-4.85 0.48,-1.51 1.2,-2.83 2.15,-3.94 0.95,-1.12 2.13,-2 3.54,-2.65 1.41,-0.65 3.04,-0.97 4.92,-0.97 1.63,0 3.08,0.29 4.35,0.86 1.27,0.57 2.35,1.36 3.24,2.36 0.89,1 1.56,2.18 2.02,3.56 0.45,1.38 0.68,2.85 0.68,4.42 0,0.57 -0.02,1.14 -0.07,1.7 -0.05,0.56 -0.1,1.01 -0.16,1.34 h -15.04 z m 9.2,-4.49 c -0.06,-1.45 -0.46,-2.62 -1.2,-3.51 -0.74,-0.89 -1.78,-1.34 -3.11,-1.34 -1.51,0 -2.66,0.42 -3.45,1.27 -0.79,0.85 -1.25,2.04 -1.41,3.58 z"
   id="path4116"
   inkscape:connector-curvature="0"
   style="fill:url(#SVGID_18_)" />
		<linearGradient
   id="SVGID_19_"
   gradientUnits="userSpaceOnUse"
   x1="585.11267"
   y1="326.1008"
   x2="587.38373"
   y2="375.6073">
			<stop
   offset="0"
   style="stop-color:#C9F9F9"
   id="stop4118" />
			<stop
   offset="1"
   style="stop-color:#44C8D5"
   id="stop4120" />
		</linearGradient>
		<path
   class="st18"
   d="m 579,334.49 c 0.45,-0.09 0.88,-0.16 1.29,-0.2 0.41,-0.05 0.85,-0.07 1.34,-0.07 0.45,0 0.9,0.03 1.34,0.09 0.44,0.06 0.87,0.14 1.29,0.23 0.09,0.15 0.17,0.37 0.25,0.66 0.08,0.29 0.14,0.59 0.2,0.91 0.06,0.32 0.11,0.63 0.16,0.95 0.05,0.32 0.08,0.58 0.11,0.79 0.66,-0.94 1.48,-1.78 2.45,-2.52 0.97,-0.74 2.18,-1.11 3.63,-1.11 0.3,0 0.65,0.02 1.04,0.04 0.39,0.03 0.68,0.08 0.86,0.14 0.06,0.3 0.1,0.65 0.14,1.04 0.03,0.39 0.05,0.8 0.05,1.22 0,0.51 -0.02,1.07 -0.07,1.68 -0.04,0.6 -0.13,1.18 -0.25,1.72 -0.33,-0.06 -0.7,-0.09 -1.11,-0.09 -0.41,0 -0.66,0 -0.75,0 -0.51,0 -1.09,0.05 -1.72,0.16 -0.64,0.11 -1.24,0.39 -1.81,0.84 -0.57,0.45 -1.05,1.13 -1.43,2.04 -0.38,0.91 -0.57,2.18 -0.57,3.81 v 11.15 c -0.54,0.09 -1.09,0.15 -1.63,0.18 -0.54,0.03 -1.07,0.05 -1.59,0.05 -0.51,0 -1.04,-0.02 -1.56,-0.05 -0.53,-0.03 -1.08,-0.09 -1.65,-0.18 v -23.48 z"
   id="path4123"
   inkscape:connector-curvature="0"
   style="fill:url(#SVGID_19_)" />
		<linearGradient
   id="SVGID_20_"
   gradientUnits="userSpaceOnUse"
   x1="600.17981"
   y1="325.40961"
   x2="602.45068"
   y2="374.9162">
			<stop
   offset="0"
   style="stop-color:#C9F9F9"
   id="stop4125" />
			<stop
   offset="1"
   style="stop-color:#44C8D5"
   id="stop4127" />
		</linearGradient>
		<path
   class="st19"
   d="m 596.29,339.38 h -2.95 l -0.23,-0.91 8.48,-10.84 h 1.04 v 6.85 h 5.49 c 0.09,0.45 0.15,0.86 0.18,1.22 0.03,0.36 0.05,0.74 0.05,1.13 0,0.42 -0.02,0.83 -0.05,1.23 -0.03,0.39 -0.09,0.83 -0.18,1.31 h -5.49 v 9.2 c 0,0.94 0.08,1.69 0.23,2.27 0.15,0.57 0.37,1.03 0.66,1.36 0.29,0.33 0.64,0.56 1.07,0.68 0.43,0.12 0.92,0.18 1.5,0.18 0.45,0 0.9,-0.04 1.34,-0.11 0.44,-0.08 0.82,-0.14 1.16,-0.2 0.21,0.57 0.36,1.17 0.45,1.79 0.09,0.62 0.14,1.17 0.14,1.65 0,0.33 -0.01,0.61 -0.02,0.84 -0.02,0.23 -0.04,0.45 -0.07,0.66 -1.39,0.33 -2.83,0.5 -4.31,0.5 -2.75,0 -4.85,-0.64 -6.3,-1.93 -1.45,-1.28 -2.18,-3.38 -2.18,-6.28 v -10.6 z"
   id="path4130"
   inkscape:connector-curvature="0"
   style="fill:url(#SVGID_20_)" />
		<linearGradient
   id="SVGID_21_"
   gradientUnits="userSpaceOnUse"
   x1="619.88068"
   y1="324.50589"
   x2="622.15161"
   y2="374.01251">
			<stop
   offset="0"
   style="stop-color:#C9F9F9"
   id="stop4132" />
			<stop
   offset="1"
   style="stop-color:#44C8D5"
   id="stop4134" />
		</linearGradient>
		<path
   class="st20"
   d="m 608.46,334.49 c 0.7,-0.15 1.31,-0.23 1.84,-0.25 0.53,-0.02 1.02,-0.02 1.47,-0.02 0.6,0 1.22,0.02 1.86,0.04 0.63,0.03 1.21,0.11 1.72,0.23 l 4.9,20.45 5.53,-20.45 c 1,-0.18 2.03,-0.27 3.08,-0.27 0.45,0 0.94,0.01 1.45,0.02 0.51,0.02 1.15,0.1 1.9,0.25 l -8.75,28.97 c -0.36,1.15 -0.79,2.1 -1.29,2.86 -0.5,0.76 -1.07,1.34 -1.7,1.77 -0.63,0.42 -1.34,0.72 -2.13,0.88 -0.79,0.16 -1.63,0.25 -2.54,0.25 -0.85,0 -1.61,-0.05 -2.29,-0.16 -0.68,-0.11 -1.35,-0.25 -2.02,-0.43 -0.03,-0.15 -0.05,-0.28 -0.05,-0.39 0,-0.11 0,-0.22 0,-0.34 0,-0.72 0.08,-1.41 0.25,-2.06 0.17,-0.65 0.37,-1.28 0.61,-1.88 0.27,0.09 0.63,0.17 1.09,0.25 0.45,0.08 0.91,0.11 1.36,0.11 0.36,0 0.73,-0.02 1.09,-0.07 0.36,-0.04 0.72,-0.18 1.07,-0.41 0.35,-0.23 0.67,-0.58 0.97,-1.07 0.3,-0.48 0.57,-1.16 0.82,-2.04 l 0.77,-2.81 c -0.33,0.03 -0.7,0.05 -1.11,0.07 -0.41,0.02 -0.82,0.02 -1.25,0.02 -0.33,0 -0.65,0 -0.95,0 -0.3,0 -0.57,-0.03 -0.82,-0.09 z"
   id="path4137"
   inkscape:connector-curvature="0"
   style="fill:url(#SVGID_21_)" />
		<linearGradient
   id="SVGID_22_"
   gradientUnits="userSpaceOnUse"
   x1="658.11108"
   y1="322.7522"
   x2="660.38202"
   y2="372.25879">
			<stop
   offset="0"
   style="stop-color:#C9F9F9"
   id="stop4139" />
			<stop
   offset="1"
   style="stop-color:#44C8D5"
   id="stop4141" />
		</linearGradient>
		<path
   class="st21"
   d="m 645.28,325.33 c 1.21,-0.18 2.37,-0.27 3.49,-0.27 1.18,0 2.34,0.09 3.49,0.27 l 7.48,18.68 7.71,-18.68 c 0.94,-0.18 1.98,-0.27 3.13,-0.27 1.15,0 2.25,0.09 3.31,0.27 l 1.54,32.6 c -1.15,0.18 -2.24,0.27 -3.26,0.27 -1.03,0 -2.04,-0.09 -3.04,-0.27 l -0.82,-22.12 -6.62,15.32 c -0.42,0.06 -0.86,0.11 -1.31,0.16 -0.45,0.04 -0.91,0.07 -1.36,0.07 -0.39,0 -0.79,-0.01 -1.18,-0.04 -0.39,-0.03 -0.8,-0.09 -1.22,-0.18 l -6.17,-15.64 -0.64,22.44 c -0.97,0.18 -1.9,0.27 -2.81,0.27 -0.97,0 -1.97,-0.09 -2.99,-0.27 z"
   id="path4144"
   inkscape:connector-curvature="0"
   style="fill:url(#SVGID_22_)" />
		<linearGradient
   id="SVGID_23_"
   gradientUnits="userSpaceOnUse"
   x1="685.80792"
   y1="321.48181"
   x2="688.0788"
   y2="370.98831">
			<stop
   offset="0"
   style="stop-color:#C9F9F9"
   id="stop4146" />
			<stop
   offset="1"
   style="stop-color:#44C8D5"
   id="stop4148" />
		</linearGradient>
		<path
   class="st22"
   d="m 690.42,342.51 c 0,-0.73 -0.12,-1.31 -0.36,-1.77 -0.24,-0.45 -0.57,-0.81 -1,-1.07 -0.42,-0.26 -0.95,-0.43 -1.56,-0.52 -0.62,-0.09 -1.31,-0.14 -2.06,-0.14 -1.63,0 -3.37,0.32 -5.21,0.95 -0.42,-0.79 -0.74,-1.53 -0.95,-2.22 -0.21,-0.69 -0.32,-1.53 -0.32,-2.49 1.33,-0.45 2.66,-0.79 3.99,-1 1.33,-0.21 2.57,-0.32 3.72,-0.32 3.14,0 5.6,0.76 7.37,2.27 1.77,1.51 2.65,3.93 2.65,7.25 v 13.6 c -1.06,0.33 -2.34,0.65 -3.85,0.95 -1.51,0.3 -3.22,0.45 -5.12,0.45 -1.54,0 -2.95,-0.14 -4.24,-0.41 -1.28,-0.27 -2.39,-0.73 -3.31,-1.36 -0.92,-0.63 -1.63,-1.45 -2.13,-2.45 -0.5,-1 -0.75,-2.22 -0.75,-3.67 0,-1.45 0.31,-2.67 0.93,-3.65 0.62,-0.98 1.42,-1.77 2.4,-2.36 0.98,-0.59 2.08,-1.01 3.29,-1.27 1.21,-0.26 2.42,-0.39 3.63,-0.39 0.88,0 1.84,0.05 2.9,0.14 v -0.52 z m 0,4.67 c -0.36,-0.06 -0.76,-0.11 -1.18,-0.16 -0.42,-0.04 -0.8,-0.07 -1.13,-0.07 -1.48,0 -2.65,0.26 -3.51,0.79 -0.86,0.53 -1.29,1.38 -1.29,2.56 0,0.79 0.17,1.39 0.5,1.81 0.33,0.42 0.73,0.73 1.2,0.93 0.47,0.2 0.97,0.32 1.5,0.36 0.53,0.04 0.99,0.07 1.38,0.07 0.45,0 0.91,-0.04 1.36,-0.11 0.45,-0.08 0.85,-0.14 1.18,-0.2 v -5.98 z"
   id="path4151"
   inkscape:connector-curvature="0"
   style="fill:url(#SVGID_23_)" />
		<linearGradient
   id="SVGID_24_"
   gradientUnits="userSpaceOnUse"
   x1="708.75952"
   y1="320.42889"
   x2="711.03052"
   y2="369.93549">
			<stop
   offset="0"
   style="stop-color:#C9F9F9"
   id="stop4153" />
			<stop
   offset="1"
   style="stop-color:#44C8D5"
   id="stop4155" />
		</linearGradient>
		<path
   class="st23"
   d="m 699.74,334.49 c 0.42,-0.09 0.85,-0.16 1.27,-0.2 0.42,-0.05 0.89,-0.07 1.4,-0.07 0.51,0 0.97,0.02 1.36,0.07 0.39,0.04 0.8,0.11 1.22,0.2 0.09,0.15 0.17,0.37 0.25,0.66 0.08,0.29 0.14,0.59 0.2,0.91 0.06,0.32 0.11,0.63 0.16,0.93 0.05,0.3 0.08,0.56 0.11,0.77 0.3,-0.45 0.66,-0.91 1.09,-1.36 0.42,-0.45 0.91,-0.86 1.47,-1.22 0.56,-0.36 1.19,-0.66 1.88,-0.88 0.7,-0.23 1.47,-0.34 2.31,-0.34 2.66,0 4.66,0.73 6.01,2.18 1.34,1.45 2.02,3.73 2.02,6.85 v 14.96 c -1.09,0.18 -2.16,0.27 -3.22,0.27 -1.06,0 -2.13,-0.09 -3.22,-0.27 v -13.24 c 0,-1.63 -0.25,-2.89 -0.75,-3.76 -0.5,-0.88 -1.37,-1.31 -2.61,-1.31 -0.51,0 -1.04,0.08 -1.59,0.23 -0.54,0.15 -1.03,0.45 -1.47,0.88 -0.44,0.44 -0.79,1.05 -1.07,1.84 -0.27,0.79 -0.41,1.81 -0.41,3.08 v 12.29 c -1.09,0.18 -2.16,0.27 -3.22,0.27 -1.06,0 -2.13,-0.09 -3.22,-0.27 v -23.47 z"
   id="path4158"
   inkscape:connector-curvature="0"
   style="fill:url(#SVGID_24_)" />
		<linearGradient
   id="SVGID_25_"
   gradientUnits="userSpaceOnUse"
   x1="730.64783"
   y1="319.4249"
   x2="732.9187"
   y2="368.9314">
			<stop
   offset="0"
   style="stop-color:#C9F9F9"
   id="stop4160" />
			<stop
   offset="1"
   style="stop-color:#44C8D5"
   id="stop4162" />
		</linearGradient>
		<path
   class="st24"
   d="m 735.36,342.51 c 0,-0.73 -0.12,-1.31 -0.36,-1.77 -0.24,-0.45 -0.57,-0.81 -1,-1.07 -0.42,-0.26 -0.95,-0.43 -1.56,-0.52 -0.61,-0.09 -1.31,-0.14 -2.06,-0.14 -1.63,0 -3.37,0.32 -5.21,0.95 -0.42,-0.79 -0.74,-1.53 -0.95,-2.22 -0.21,-0.69 -0.32,-1.53 -0.32,-2.49 1.33,-0.45 2.66,-0.79 3.99,-1 1.33,-0.21 2.57,-0.32 3.72,-0.32 3.14,0 5.6,0.76 7.37,2.27 1.77,1.51 2.65,3.93 2.65,7.25 v 13.6 c -1.06,0.33 -2.34,0.65 -3.85,0.95 -1.51,0.3 -3.22,0.45 -5.12,0.45 -1.54,0 -2.95,-0.14 -4.24,-0.41 -1.29,-0.27 -2.39,-0.73 -3.31,-1.36 -0.92,-0.63 -1.63,-1.45 -2.13,-2.45 -0.5,-1 -0.75,-2.22 -0.75,-3.67 0,-1.45 0.31,-2.67 0.93,-3.65 0.62,-0.98 1.42,-1.77 2.4,-2.36 0.98,-0.59 2.08,-1.01 3.29,-1.27 1.21,-0.26 2.42,-0.39 3.63,-0.39 0.88,0 1.84,0.05 2.9,0.14 v -0.52 z m 0,4.67 c -0.36,-0.06 -0.76,-0.11 -1.18,-0.16 -0.42,-0.04 -0.8,-0.07 -1.13,-0.07 -1.48,0 -2.65,0.26 -3.51,0.79 -0.86,0.53 -1.29,1.38 -1.29,2.56 0,0.79 0.17,1.39 0.5,1.81 0.33,0.42 0.73,0.73 1.2,0.93 0.47,0.2 0.97,0.32 1.5,0.36 0.53,0.04 0.99,0.07 1.38,0.07 0.45,0 0.91,-0.04 1.36,-0.11 0.45,-0.08 0.85,-0.14 1.18,-0.2 v -5.98 z"
   id="path4165"
   inkscape:connector-curvature="0"
   style="fill:url(#SVGID_25_)" />
		<linearGradient
   id="SVGID_26_"
   gradientUnits="userSpaceOnUse"
   x1="753.3363"
   y1="318.38409"
   x2="755.6073"
   y2="367.89069">
			<stop
   offset="0"
   style="stop-color:#C9F9F9"
   id="stop4167" />
			<stop
   offset="1"
   style="stop-color:#44C8D5"
   id="stop4169" />
		</linearGradient>
		<path
   class="st25"
   d="m 757.61,354.03 c 2.75,0.06 4.78,0.67 6.08,1.84 1.3,1.16 1.95,2.82 1.95,4.96 0,1.27 -0.33,2.43 -1,3.47 -0.66,1.04 -1.57,1.93 -2.72,2.65 -1.15,0.72 -2.51,1.28 -4.08,1.68 -1.57,0.39 -3.26,0.59 -5.08,0.59 -1.81,0 -3.35,-0.14 -4.62,-0.43 -1.27,-0.29 -2.3,-0.69 -3.11,-1.2 -0.8,-0.51 -1.38,-1.15 -1.72,-1.9 -0.35,-0.76 -0.52,-1.59 -0.52,-2.49 0,-1.36 0.32,-2.48 0.97,-3.35 0.65,-0.88 1.52,-1.65 2.61,-2.31 -0.7,-0.42 -1.25,-0.94 -1.66,-1.56 -0.41,-0.62 -0.61,-1.41 -0.61,-2.38 0,-1.15 0.24,-2.09 0.73,-2.81 0.48,-0.73 1.19,-1.42 2.13,-2.09 -1.06,-0.76 -1.87,-1.68 -2.45,-2.77 -0.57,-1.09 -0.86,-2.3 -0.86,-3.63 0,-1.18 0.23,-2.27 0.68,-3.29 0.45,-1.01 1.11,-1.89 1.97,-2.63 0.86,-0.74 1.91,-1.32 3.15,-1.75 1.24,-0.42 2.63,-0.63 4.17,-0.63 1.51,0 2.9,0.23 4.17,0.7 1.27,0.47 2.33,1.07 3.17,1.79 0.57,-0.76 1.28,-1.32 2.13,-1.7 0.85,-0.38 1.99,-0.57 3.45,-0.57 0.06,0.39 0.11,0.78 0.16,1.16 0.04,0.38 0.07,0.78 0.07,1.2 0,0.48 -0.02,0.97 -0.05,1.45 -0.03,0.48 -0.09,0.98 -0.18,1.5 h -3.67 c 0.15,0.3 0.29,0.66 0.41,1.09 0.12,0.42 0.18,0.98 0.18,1.68 0,1.18 -0.22,2.28 -0.66,3.29 -0.44,1.01 -1.08,1.88 -1.93,2.61 -0.85,0.72 -1.88,1.3 -3.11,1.72 -1.22,0.42 -2.61,0.64 -4.15,0.64 -1.3,0 -2.46,-0.14 -3.49,-0.41 -0.51,0.33 -0.83,0.69 -0.95,1.07 -0.12,0.38 -0.18,0.73 -0.18,1.07 0,0.48 0.16,0.88 0.48,1.18 0.32,0.3 0.96,0.47 1.93,0.5 z m -5.8,4.71 c -0.67,-0.03 -1.22,0.04 -1.66,0.23 -0.44,0.18 -0.79,0.41 -1.04,0.7 -0.26,0.29 -0.44,0.6 -0.54,0.95 -0.11,0.35 -0.16,0.69 -0.16,1.02 0,1.15 0.43,1.93 1.29,2.34 0.86,0.41 2.02,0.61 3.47,0.61 1.9,0 3.44,-0.3 4.6,-0.91 1.16,-0.6 1.75,-1.42 1.75,-2.45 0,-0.3 -0.04,-0.59 -0.11,-0.86 -0.08,-0.27 -0.22,-0.52 -0.43,-0.75 -0.21,-0.23 -0.51,-0.42 -0.88,-0.57 -0.38,-0.15 -0.88,-0.23 -1.52,-0.23 z m 1.86,-12.37 c 1.27,0 2.18,-0.36 2.74,-1.09 0.56,-0.72 0.84,-1.72 0.84,-2.99 0,-1.27 -0.28,-2.27 -0.84,-3.02 -0.56,-0.74 -1.47,-1.11 -2.74,-1.11 -1.3,0 -2.24,0.37 -2.81,1.11 -0.57,0.74 -0.86,1.75 -0.86,3.02 0,1.27 0.29,2.27 0.86,2.99 0.57,0.72 1.51,1.09 2.81,1.09 z"
   id="path4172"
   inkscape:connector-curvature="0"
   style="fill:url(#SVGID_26_)" />
		<linearGradient
   id="SVGID_27_"
   gradientUnits="userSpaceOnUse"
   x1="775.81152"
   y1="317.35309"
   x2="778.0824"
   y2="366.85971">
			<stop
   offset="0"
   style="stop-color:#C9F9F9"
   id="stop4174" />
			<stop
   offset="1"
   style="stop-color:#44C8D5"
   id="stop4176" />
		</linearGradient>
		<path
   class="st26"
   d="m 772.65,348.18 c 0.12,1.81 0.76,3.13 1.9,3.94 1.15,0.82 2.66,1.22 4.53,1.22 1.03,0 2.08,-0.1 3.15,-0.29 1.07,-0.2 2.09,-0.48 3.06,-0.84 0.33,0.6 0.62,1.33 0.86,2.18 0.24,0.85 0.38,1.75 0.41,2.72 -2.36,0.91 -5.02,1.36 -7.98,1.36 -2.18,0 -4.04,-0.3 -5.6,-0.91 -1.56,-0.6 -2.83,-1.44 -3.81,-2.52 -0.98,-1.07 -1.71,-2.35 -2.18,-3.83 -0.47,-1.48 -0.7,-3.1 -0.7,-4.85 0,-1.72 0.24,-3.34 0.72,-4.85 0.48,-1.51 1.2,-2.83 2.15,-3.94 0.95,-1.12 2.13,-2 3.54,-2.65 1.41,-0.65 3.04,-0.97 4.92,-0.97 1.63,0 3.08,0.29 4.35,0.86 1.27,0.57 2.35,1.36 3.24,2.36 0.89,1 1.56,2.18 2.02,3.56 0.45,1.38 0.68,2.85 0.68,4.42 0,0.57 -0.02,1.14 -0.07,1.7 -0.05,0.56 -0.1,1.01 -0.16,1.34 h -15.03 z m 9.2,-4.49 c -0.06,-1.45 -0.46,-2.62 -1.2,-3.51 -0.74,-0.89 -1.78,-1.34 -3.11,-1.34 -1.51,0 -2.66,0.42 -3.45,1.27 -0.79,0.85 -1.25,2.04 -1.4,3.58 z"
   id="path4179"
   inkscape:connector-curvature="0"
   style="fill:url(#SVGID_27_)" />
		<linearGradient
   id="SVGID_28_"
   gradientUnits="userSpaceOnUse"
   x1="795.8786"
   y1="316.43259"
   x2="798.14948"
   y2="365.93909">
			<stop
   offset="0"
   style="stop-color:#C9F9F9"
   id="stop4181" />
			<stop
   offset="1"
   style="stop-color:#44C8D5"
   id="stop4183" />
		</linearGradient>
		<path
   class="st27"
   d="m 790.21,334.49 c 0.45,-0.09 0.88,-0.16 1.29,-0.2 0.41,-0.05 0.85,-0.07 1.34,-0.07 0.45,0 0.9,0.03 1.34,0.09 0.44,0.06 0.87,0.14 1.29,0.23 0.09,0.15 0.17,0.37 0.25,0.66 0.08,0.29 0.14,0.59 0.2,0.91 0.06,0.32 0.11,0.63 0.16,0.95 0.05,0.32 0.08,0.58 0.11,0.79 0.66,-0.94 1.48,-1.78 2.45,-2.52 0.97,-0.74 2.18,-1.11 3.63,-1.11 0.3,0 0.65,0.02 1.04,0.04 0.39,0.03 0.68,0.08 0.86,0.14 0.06,0.3 0.1,0.65 0.14,1.04 0.03,0.39 0.05,0.8 0.05,1.22 0,0.51 -0.02,1.07 -0.07,1.68 -0.04,0.6 -0.13,1.18 -0.25,1.72 -0.33,-0.06 -0.7,-0.09 -1.11,-0.09 -0.41,0 -0.66,0 -0.75,0 -0.51,0 -1.09,0.05 -1.72,0.16 -0.64,0.11 -1.24,0.39 -1.81,0.84 -0.57,0.45 -1.05,1.13 -1.43,2.04 -0.38,0.91 -0.57,2.18 -0.57,3.81 v 11.15 c -0.54,0.09 -1.09,0.15 -1.63,0.18 -0.54,0.03 -1.07,0.05 -1.59,0.05 -0.51,0 -1.04,-0.02 -1.56,-0.05 -0.53,-0.03 -1.08,-0.09 -1.66,-0.18 z"
   id="path4186"
   inkscape:connector-curvature="0"
   style="fill:url(#SVGID_28_)" />
	</g>
</g>
<g
   id="g4258"
   transform="translate(-337.39,-285.8)">
	<radialGradient
   id="SVGID_29_"
   cx="397.91949"
   cy="329.09921"
   r="68.565598"
   gradientUnits="userSpaceOnUse">
		<stop
   offset="0"
   style="stop-color:#44C8D5"
   id="stop4192" />
		<stop
   offset="1"
   style="stop-color:#C9F9F9"
   id="stop4194" />
	</radialGradient>
	<polyline
   class="st28"
   points="341.07,331.31 344.77,329.45 395.89,329.45 395.89,355.54 393.37,358.41 378.59,347.81    356.32,336.36  "
   id="polyline4197"
   style="fill:url(#SVGID_29_)" />
	<radialGradient
   id="SVGID_30_"
   cx="397.91949"
   cy="329.09921"
   r="68.565598"
   gradientUnits="userSpaceOnUse">
		<stop
   offset="0"
   style="stop-color:#44C8D5"
   id="stop4199" />
		<stop
   offset="1"
   style="stop-color:#C9F9F9"
   id="stop4201" />
	</radialGradient>
	<polyline
   class="st29"
   points="401.46,358.41 399.32,355.23 399.32,329.45 452.13,329.45 453.69,331.35 438.41,343.17  "
   id="polyline4204"
   style="fill:url(#SVGID_30_)" />
	<radialGradient
   id="SVGID_31_"
   cx="397.91949"
   cy="329.09921"
   r="68.565598"
   gradientUnits="userSpaceOnUse">
		<stop
   offset="0"
   style="stop-color:#E55B03"
   id="stop4206" />
		<stop
   offset="1"
   style="stop-color:#FA8D3B"
   id="stop4208" />
	</radialGradient>
	<polyline
   class="st30"
   points="401.46,289.4 399.32,290.57 399.32,324.98 445.32,324.98 447.17,322.66 427.79,317.18    406.75,317.07  "
   id="polyline4211"
   style="fill:url(#SVGID_31_)" />
	<radialGradient
   id="SVGID_32_"
   cx="397.91949"
   cy="329.09921"
   r="68.565598"
   gradientUnits="userSpaceOnUse">
		<stop
   offset="0"
   style="stop-color:#44C8D5"
   id="stop4213" />
		<stop
   offset="1"
   style="stop-color:#C9F9F9"
   id="stop4215" />
	</radialGradient>
	<polyline
   class="st31"
   points="345.4,322.66 347.64,324.98 395.89,324.98 395.89,289.4 393.37,287.77 370.65,318.64  "
   id="polyline4218"
   style="fill:url(#SVGID_32_)" />
	<g
   id="g4229">
		<g
   id="g4227">
			<radialGradient
   id="SVGID_33_"
   cx="406.77411"
   cy="322.12839"
   r="32.3312"
   gradientUnits="userSpaceOnUse">
				<stop
   offset="0"
   style="stop-color:#FA8D3B"
   id="stop4220" />
				<stop
   offset="1"
   style="stop-color:#E55B03"
   id="stop4222" />
			</radialGradient>
			<path
   class="st32"
   d="m 401.46,289.4 c 5.85,2.23 10.74,6.55 13.82,12.11 2.19,-2.3 5.22,-3.72 8.58,-3.72 6.69,0 12.11,5.67 12.11,12.67 0,1.82 -0.37,3.56 -1.04,5.14 5.07,0.72 9.44,3.35 12.24,7.07 h -45.71 z"
   id="path4225"
   inkscape:connector-curvature="0"
   style="fill:url(#SVGID_33_);stroke:#f5822f;stroke-width:0.1717;stroke-miterlimit:10" />
		</g>
	</g>
	<g
   id="g4238">
		<radialGradient
   id="SVGID_34_"
   cx="396.41711"
   cy="326.91339"
   r="42.9706"
   gradientUnits="userSpaceOnUse">
			<stop
   offset="0"
   style="stop-color:#C9F9F9"
   id="stop4231" />
			<stop
   offset="1"
   style="stop-color:#44C8D5"
   id="stop4233" />
		</radialGradient>
		<path
   class="st33"
   d="m 383.9,286.03 c 3.33,0 6.51,0.61 9.47,1.74 v 34.89 H 345.4 c 2.55,-3.39 6.35,-5.92 10.8,-7.02 0,-0.21 -0.01,-0.42 -0.01,-0.63 -0.01,-16 12.41,-28.98 27.71,-28.98 z"
   id="path4236"
   inkscape:connector-curvature="0"
   style="fill:url(#SVGID_34_)" />
	</g>
	<g
   id="g4247">
		<radialGradient
   id="SVGID_35_"
   cx="396.41711"
   cy="326.91339"
   r="42.9706"
   gradientUnits="userSpaceOnUse">
			<stop
   offset="0"
   style="stop-color:#C9F9F9"
   id="stop4240" />
			<stop
   offset="1"
   style="stop-color:#44C8D5"
   id="stop4242" />
		</radialGradient>
		<path
   class="st34"
   d="m 453.69,331.35 c 2.31,3.08 3.67,6.82 3.67,10.86 0,6.82 -3.89,12.81 -9.75,16.2 h -46.16 v -27.06 z"
   id="path4245"
   inkscape:connector-curvature="0"
   style="fill:url(#SVGID_35_)" />
	</g>
	<g
   id="g4256">
		<radialGradient
   id="SVGID_36_"
   cx="396.48849"
   cy="326.83981"
   r="58.947201"
   gradientUnits="userSpaceOnUse">
			<stop
   offset="0"
   style="stop-color:#C9F9F9"
   id="stop4249" />
			<stop
   offset="1"
   style="stop-color:#44C8D5"
   id="stop4251" />
		</radialGradient>
		<path
   class="st35"
   d="m 393.37,331.31 v 27.1 h -46.22 c -5.87,-3.39 -9.76,-9.39 -9.76,-16.23 0,-4.03 1.36,-7.78 3.68,-10.87 z"
   id="path4254"
   inkscape:connector-curvature="0"
   style="fill:url(#SVGID_36_)" />
	</g>
</g>
</svg>